name C:\Users\antoi\Documents\MyRepositories\upper-imu-dc\Results\main_tracking\Case_71\SHRUG01_linearAccelerations_bodyFrame.mot
datacolumns 4
datarows 117
range 0.71000000 1.87000000
endheader 
time	radius_imu_x	radius_imu_y	radius_imu_z	
          0.71000000	         -2.18201341	          9.31301641	          2.42985066	
          0.72000000	         -1.93084423	          9.30026793	          2.26830253	
          0.73000000	         -1.88717812	          9.29354601	          2.21238328	
          0.74000000	         -1.92080360	          9.29596201	          2.19475951	
          0.75000000	         -1.98585447	          9.30127655	          2.19086120	
          0.76000000	         -2.06316342	          9.30941889	          2.19239614	
          0.77000000	         -2.14482679	          9.32018221	          2.19711200	
          0.78000000	         -2.22691358	          9.33399674	          2.20626242	
          0.79000000	         -2.30837107	          9.35111198	          2.21891205	
          0.80000000	         -2.38828813	          9.37187213	          2.23666087	
          0.81000000	         -2.46633914	          9.39678573	          2.25991395	
          0.82000000	         -2.54244454	          9.42572256	          2.28898949	
          0.83000000	         -2.61610005	          9.45863316	          2.32425825	
          0.84000000	         -2.68659329	          9.49521101	          2.36606908	
          0.85000000	         -2.75290781	          9.53494722	          2.41456064	
          0.86000000	         -2.81360526	          9.57716639	          2.46982842	
          0.87000000	         -2.86677564	          9.62105346	          2.53198361	
          0.88000000	         -2.91011664	          9.66576318	          2.60113762	
          0.89000000	         -2.94114728	          9.71031236	          2.67717636	
          0.90000000	         -2.95744612	          9.75370489	          2.76004401	
          0.91000000	         -2.95702813	          9.79479717	          2.84913844	
          0.92000000	         -2.93860980	          9.83240444	          2.94342697	
          0.93000000	         -2.90198330	          9.86524446	          3.04130350	
          0.94000000	         -2.84816882	          9.89206883	          3.14058440	
          0.95000000	         -2.77940998	          9.91164335	          3.23858347	
          0.96000000	         -2.69904443	          9.92293431	          3.33232773	
          0.97000000	         -2.61123376	          9.92528990	          3.41882432	
          0.98000000	         -2.52053136	          9.91852703	          3.49535031	
          0.99000000	         -2.43138794	          9.90301575	          3.55970386	
          1.00000000	         -2.34771104	          9.87967103	          3.61034258	
          1.01000000	         -2.27256163	          9.84983504	          3.64640952	
          1.02000000	         -2.20801842	          9.81508025	          3.66763876	
          1.03000000	         -2.15521167	          9.77699298	          3.67420912	
          1.04000000	         -2.11451041	          9.73699746	          3.66661359	
          1.05000000	         -2.08575860	          9.69625239	          3.64561572	
          1.06000000	         -2.06842562	          9.65562718	          3.61230734	
          1.07000000	         -2.06164232	          9.61571729	          3.56819627	
          1.08000000	         -2.06418953	          9.57685625	          3.51522385	
          1.09000000	         -2.07451407	          9.53911809	          3.45566530	
          1.10000000	         -2.09083044	          9.50233519	          3.39191927	
          1.11000000	         -2.11130596	          9.46615551	          3.32626755	
          1.12000000	         -2.13424286	          9.43014304	          3.26068913	
          1.13000000	         -2.15816815	          9.39390204	          3.19674827	
          1.14000000	         -2.18182774	          9.35719353	          3.13551161	
          1.15000000	         -2.20414774	          9.32000076	          3.07745341	
          1.16000000	         -2.22424717	          9.28251823	          3.02237737	
          1.17000000	         -2.24152791	          9.24500191	          2.96939810	
          1.18000000	         -2.25578763	          9.20764747	          2.91694361	
          1.19000000	         -2.26746102	          9.17032998	          2.86274909	
          1.20000000	         -2.27742028	          9.13262437	          2.80438647	
          1.21000000	         -2.28706710	          9.09376721	          2.73935573	
          1.22000000	         -2.29788519	          9.05278843	          2.66584505	
          1.23000000	         -2.31105827	          9.00866931	          2.58338434	
          1.24000000	         -2.32782006	          8.96071066	          2.49307301	
          1.25000000	         -2.34914404	          8.90804205	          2.39664989	
          1.26000000	         -2.37570488	          8.85081432	          2.29576366	
          1.27000000	         -2.40859372	          8.78887495	          2.19311440	
          1.28000000	         -2.44782923	          8.72317820	          2.09523993	
          1.29000000	         -2.49597718	          8.65539691	          2.01106441	
          1.30000000	         -2.55550764	          8.58653449	          1.94429480	
          1.31000000	         -2.61586298	          8.51814144	          1.89474431	
          1.32000000	         -2.67530525	          8.45135188	          1.86169963	
          1.33000000	         -2.73067076	          8.38698196	          1.84678601	
          1.34000000	         -2.78496845	          8.32691587	          1.85019798	
          1.35000000	         -2.83812812	          8.27210163	          1.87001040	
          1.36000000	         -2.88950712	          8.22264033	          1.90638623	
          1.37000000	         -2.94240851	          8.17962306	          1.95371911	
          1.38000000	         -2.99484999	          8.14112689	          2.01060917	
          1.39000000	         -3.04808307	          8.11224708	          2.07013850	
          1.40000000	         -3.09958916	          8.08383749	          2.14405277	
          1.41000000	         -3.15271866	          8.06682133	          2.21407254	
          1.42000000	         -3.20386237	          8.05310852	          2.29157620	
          1.43000000	         -3.25420493	          8.04685445	          2.37182448	
          1.44000000	         -3.30369794	          8.04722837	          2.45534336	
          1.45000000	         -3.35140261	          8.05349344	          2.54215899	
          1.46000000	         -3.39632684	          8.06645136	          2.63058763	
          1.47000000	         -3.43760784	          8.08481127	          2.71920623	
          1.48000000	         -3.47353283	          8.10806815	          2.80707201	
          1.49000000	         -3.50306914	          8.13537122	          2.89296839	
          1.50000000	         -3.52583574	          8.16582191	          2.97537187	
          1.51000000	         -3.54155018	          8.19863243	          3.05267975	
          1.52000000	         -3.54999200	          8.23298207	          3.12323073	
          1.53000000	         -3.55084947	          8.26812034	          3.18536516	
          1.54000000	         -3.54374668	          8.30336715	          3.23747379	
          1.55000000	         -3.52833513	          8.33810541	          3.27813200	
          1.56000000	         -3.50434337	          8.37176786	          3.30633643	
          1.57000000	         -3.47177618	          8.40387015	          3.32164902	
          1.58000000	         -3.43099507	          8.43398885	          3.32440743	
          1.59000000	         -3.38291024	          8.46173441	          3.31567369	
          1.60000000	         -3.32895604	          8.48673721	          3.29716259	
          1.61000000	         -3.27110330	          8.50861460	          3.27089768	
          1.62000000	         -3.21166945	          8.52700027	          3.23889835	
          1.63000000	         -3.15310608	          8.54157927	          3.20287384	
          1.64000000	         -3.09776090	          8.55213346	          3.16404858	
          1.65000000	         -3.04768370	          8.55856860	          3.12313278	
          1.66000000	         -3.00449015	          8.56091572	          3.08043069	
          1.67000000	         -2.96928465	          8.55931434	          3.03602989	
          1.68000000	         -2.94265499	          8.55399172	          2.98998840	
          1.69000000	         -2.92469908	          8.54524093	          2.94248492	
          1.70000000	         -2.91504940	          8.53338861	          2.89392178	
          1.71000000	         -2.91289667	          8.51875387	          2.84496871	
          1.72000000	         -2.91700245	          8.50161358	          2.79655294	
          1.73000000	         -2.92569435	          8.48219454	          2.74979046	
          1.74000000	         -2.93682541	          8.46069616	          2.70587475	
          1.75000000	         -2.94772885	          8.43734000	          2.66594349	
          1.76000000	         -2.95520602	          8.41242795	          2.63096726	
          1.77000000	         -2.95563133	          8.38639031	          2.60167427	
          1.78000000	         -2.94524935	          8.35981537	          2.57850416	
          1.79000000	         -2.92065410	          8.33344871	          2.56161094	
          1.80000000	         -2.87937933	          8.30817848	          2.55091764	
          1.81000000	         -2.82042543	          8.28497301	          2.54626444	
          1.82000000	         -2.74458996	          8.26482486	          2.54755006	
          1.83000000	         -2.65453321	          8.24867515	          2.55490037	
          1.84000000	         -2.55456170	          8.23732073	          2.56872588	
          1.85000000	         -2.45032309	          8.23125613	          2.58964236	
          1.86000000	         -2.34844421	          8.23072072	          2.61816638	
          1.87000000	         -2.25645527	          8.23563074	          2.65420664	
